<?xml version="1.0" encoding="utf-8"?>
<!-- Generator: Adobe Illustrator 26.2.1, SVG Export Plug-In . SVG Version: 6.00 Build 0)  -->
<svg version="1.1" id="Layer_1" xmlns="http://www.w3.org/2000/svg" xmlns:xlink="http://www.w3.org/1999/xlink" x="0px" y="0px"
	 viewBox="0 0 1080 1080" style="enable-background:new 0 0 1080 1080;" xml:space="preserve">
<style type="text/css">
	.st0{fill-rule:evenodd;clip-rule:evenodd;fill:#999999;}
</style>
<path class="st0" d="M590.73,448.68h0.73v50.8h-50.65v-50.8H590.73L590.73,448.68z M370.29,556.1l117.15,7.36
	c4.87,0,8.86,4.04,8.86,8.97v0c0,4.94-3.98,8.97-8.86,8.97H320.48v-66.13C325.61,535.7,343.27,552.41,370.29,556.1L370.29,556.1z
	 M320.48,632.49h170.69c24.88,0,45.77-18.19,50.37-42.08c4.06,23.82,24.63,42.08,49.19,42.08h109.06c24.37,0,44.8-17.97,49.09-41.51
	v41.51h174.85c28.23,0,51.32-23.4,51.32-52v-7.36c0-28.6-23.09-52-51.32-52l-9.59-0.43c-54.41-2.42-108.64-5.2-162.98-8.04
	c4.23,21.6,22.23,39.59,50.4,43.44l118.44,7.36c4.87,0,8.86,4.04,8.86,8.97v0c0,4.94-3.98,8.97-8.86,8.97H749.72v-68.83l-50.65-2.65
	v58.87c0,8.24-6.65,14.98-14.78,14.98h-78.04c-8.13,0-14.78-6.74-14.78-14.98v-64.49l-50.65-2.65v58.36
	c-5.79-22.08-25.9-37.99-49.64-37.99l-223.08-14.78v125.24h48.23H320.48L320.48,632.49z M532.76,499.51v-51.08H370.29
	c-23.98,0-44.26,16.89-49.81,39.52v-39.27h-96.98l-33.05,50.8h128.53L532.76,499.51L532.76,499.51z M246.7,506l-80.11,126.49h-62.66
	l84.51-129.9L246.7,506L246.7,506z M975.05,499.51v-51.08H801.57c-27.92,0-50.81,22.89-51.31,51.06L975.05,499.51L975.05,499.51z
	 M699.07,499.48v-50.8h0.73h49.92v50.8H699.07L699.07,499.48z"/>
</svg>
