<?xml version="1.0" encoding="utf-8"?>
<!-- Generator: Adobe Illustrator 26.2.1, SVG Export Plug-In . SVG Version: 6.00 Build 0)  -->
<svg version="1.1" id="Layer_1" xmlns="http://www.w3.org/2000/svg" xmlns:xlink="http://www.w3.org/1999/xlink" x="0px" y="0px"
	 viewBox="0 0 1440 1440" style="enable-background:new 0 0 1440 1440;" xml:space="preserve">
<style type="text/css">
	.st0{fill:#999999;}
</style>
<g>
	<path class="st0" d="M675.71,635H427.86c-9.73,0-17.62,7.89-17.62,17.62v130.37c0,9.73,7.89,17.62,17.62,17.62h247.85
		c9.73,0,17.62-7.89,17.62-17.62V652.62C693.33,642.89,685.44,635,675.71,635z M547.82,673.35h25.43l-6.47,18.79l-24.94-0.01
		L547.82,673.35z M504.5,673.35h19.44l1.98,18.77l-31.35-0.01L504.5,673.35z M458.38,673.03h25.43l-2.83,19.08l-24.72-0.01
		L458.38,673.03z M513.06,760.57l-5.22-51.85l-25.63,51.85h-33.54l7.09-63.9l24.41,0.86l-4.49,30.27l15.81-29.87l35.17,1.23
		l3.22,30.52l9.58-30.07l24.45,0.86l-20.7,60.09H513.06z M657.62,716.96c-8.17,24.52-34.66,43.61-58.84,43.61H550.7l19.95-59.86
		l32.37,1.14l-11.83,34.92c4.99,0.4,6.21,0.02,9.72-0.16c13.67-0.64,25.68-9.96,29.79-22.26c4.05-12.1-1.83-21.88-13.8-22.2
		l-43.38-0.01l6.26-18.79h48.08C652.14,673.35,665.78,692.43,657.62,716.96z"/>
	<polygon class="st0" points="743.51,711.91 755.75,663.81 755.92,663.81 767.29,711.91 782.33,711.91 798.42,648.77 785.48,648.77 
		775.33,696.25 775.16,696.25 764.14,648.77 748.84,648.77 736.6,696.25 736.42,696.25 726.72,648.77 712.72,648.77 728.11,711.91 	
		"/>
	<path class="st0" d="M815.78,713.22c10.23,0,18.71-3.59,19.85-14.43h-11.8c-1.23,4.02-3.5,5.68-8.05,5.68
		c-6.73,0-7.52-5.33-7.52-11.01h28.76c0-2.88,0-5.68-0.35-8.4c-0.35-2.8-0.96-5.42-2.19-7.86c-3.67-7.7-10.49-10.49-18.71-10.49
		c-13.38,0-21.07,10.14-21.07,23.35C794.71,704.74,800.74,713.22,815.78,713.22z M815.78,675.44c6.38,0,7.7,4.46,7.7,9.27h-15.21
		C808.43,679.9,809.75,675.44,815.78,675.44z"/>
	<path class="st0" d="M879.44,698.79c0-16.44-25.1-12.5-25.1-19.41c0-2.88,1.66-3.93,5.25-3.93c2.97,0,5.77,1.31,5.95,4.29h11.8
		c-0.61-9.7-8.48-13.03-17.75-13.03c-7.7,0-18.8,4.02-18.8,13.2c0,10.23,7.78,12.07,16.18,14.08c2.62,0.61,8.92,2.1,8.92,5.6
		c0,3.41-2.71,4.89-6.3,4.89c-3.85,0-6.9-1.92-7.17-5.33h-12.15c0.17,10.05,9.09,14.08,19.32,14.08
		C867.72,713.22,879.44,708.41,879.44,698.79z"/>
	<path class="st0" d="M885.13,698.35c0,9.54,2.18,14.87,12.41,14.87c1.83,0,8.83-0.61,10.32-1.31v-7.7c-1.4,0.08-2.8,0.26-4.2,0.26
		c-4.55,0-5.42-1.57-5.42-7.34v-20.37h9.88v-8.74h-9.88v-13.38l-13.11,4.72v8.66h-4.83v8.74h4.83V698.35z"/>
	<path class="st0" d="M930.59,713.22c10.23,0,18.71-3.59,19.85-14.43h-11.81c-1.22,4.02-3.5,5.68-8.04,5.68
		c-6.73,0-7.52-5.33-7.52-11.01h28.77c0-2.88,0-5.68-0.35-8.4c-0.35-2.8-0.96-5.42-2.18-7.86c-3.67-7.7-10.49-10.49-18.71-10.49
		c-13.38,0-21.07,10.14-21.07,23.35C909.52,704.74,915.55,713.22,930.59,713.22z M930.59,675.44c6.38,0,7.69,4.46,7.69,9.27h-15.22
		C923.25,679.9,924.56,675.44,930.59,675.44z"/>
	<path class="st0" d="M969.38,675.96h-0.18l-0.26-7.95h-11.98c0.17,3.24,0.43,6.91,0.43,8.74l0.09,35.15h13.03v-21.78
		c0.09-2.89,0.35-5.33,1.75-7.78c1.31-1.84,4.2-3.06,6.38-3.23l5.69-11.63C977.77,667.31,972.17,669.06,969.38,675.96z"/>
	<path class="st0" d="M1028.88,676.32c-1.57-6.38-10.05-9.62-14.43-9.62c-6.64,0-10.76,2.63-13.46,6.65l-0.18-0.26v-5.07h-13.03
		v43.9h13.12V685.5c0.17-6.38,3.76-10.06,7.87-10.06c6.47,0,7.78,5.34,7.87,10.06v26.41h13.12v-28.6
		C1029.76,681.82,1029.58,679.02,1028.88,676.32z"/>
	<path class="st0" d="M739.05,724.55h-21.51v63.13h21.51c19.67,0.18,31.92-9.62,31.92-31.56
		C770.96,734.17,758.72,724.38,739.05,724.55z M738.08,777.19h-7v-42.14h7c16.09-0.17,18.45,11.02,18.45,21.08
		C756.53,766.18,754.17,777.37,738.08,777.19z"/>
	<rect x="776.47" y="724.55" class="st0" width="13.99" height="11.28"/>
	<rect x="776.91" y="743.79" class="st0" width="13.11" height="43.9"/>
	<path class="st0" d="M826.06,748.87h-0.17c-2.1-4.46-5.86-6.39-11.72-6.39c-12.24,0-18.62,11.28-18.62,22.47
		c0,10.66,6.12,21.86,18.01,21.86c4.98,0,9.62-1.75,12.33-6.04h0.17c0.52,6.39,0.87,15.48-9.09,15.48c-3.59,0-7.08-1.48-7.26-5.42
		h-12.41c0.26,11.81,10.66,14.17,20.37,14.17c19.24,0.18,21.51-11.02,21.51-21.25v-39.96h-13.11V748.87z M817.57,778.07
		c-7.17,0-8.48-7.34-8.48-13.02c0-6.47,1.31-13.82,8.48-13.82c7.17,0,8.48,7.35,8.48,13.82
		C826.06,770.73,824.74,778.07,817.57,778.07z"/>
	<rect x="846.99" y="743.79" class="st0" width="13.12" height="43.9"/>
	<rect x="846.55" y="724.55" class="st0" width="13.99" height="11.28"/>
	<path class="st0" d="M882.75,730.41l-13.12,4.72v8.66h-5.19v8.75h5.19v21.6c0,9.53,2.19,14.87,12.42,14.87
		c1.84,0,8.83-0.61,10.32-1.31v-7.7c-1.39,0.09-2.8,0.26-4.19,0.26c-4.55,0-5.42-1.57-5.42-7.35v-20.37h9.88v-8.75h-9.88V730.41z"/>
	<path class="st0" d="M935.3,758.92c0-13.2-9.88-16.44-18.71-16.44c-4.72,0-9.36,0.7-12.94,2.8c-3.49,2.01-5.86,5.42-5.94,10.93
		h12.59c-0.18-2.01,1.31-6.3,5.85-6.3c4.64,0,6.04,3.59,6.04,5.42v4.11c-5.25-0.17-11.89,0.09-17.14,2.37
		c-7.96,3.41-9.36,10.84-9.36,13.9c0,8.57,6.12,13.3,14.34,13.3c5.95,0,10.5-2.1,13.47-7.17h0.17c0,1.84,0.17,3.85,0.44,5.86h11.8
		c-0.17-1.31-0.52-2.62-0.61-4.81V758.92z M914.66,780.25c-3.67,0-6.38-2.62-6.38-6.29c0-7.08,9.36-6.99,13.91-6.91
		C922.19,772.21,921.92,780.25,914.66,780.25z"/>
	<rect x="943.46" y="724.55" class="st0" width="13.12" height="63.13"/>
	<path class="st0" d="M972.79,722.44c-5.29,0-9.54,4.25-9.54,9.49c0,5.29,4.25,9.54,9.54,9.54c5.26,0,9.49-4.25,9.49-9.54
		C982.28,726.69,978.05,722.44,972.79,722.44z M972.79,739.8c-4.35,0-7.87-3.52-7.87-7.87c0-4.3,3.52-7.82,7.87-7.82
		c4.32,0,7.82,3.52,7.82,7.82C980.61,736.28,977.11,739.8,972.79,739.8z"/>
	<path class="st0" d="M974.53,731.95v-0.05c1.49-0.3,2.28-1.32,2.28-2.61c0-2.53-2.13-3.09-4.18-3.09h-3.62v11.19h1.75v-4.84h1.46
		c0.61,0.05,1.19,0,1.62,0.46c0.51,0.53,0.51,1.42,0.63,2.38c0.08,0.66,0.26,1.37,0.38,2h2.23c-0.38-1.01-0.51-2.18-0.66-3.24
		C976.26,732.94,976.08,732.26,974.53,731.95z M972.61,730.81h-1.85v-2.86h2.1c1.39,0,1.77,0.43,1.77,1.27
		C974.63,730.08,974.25,730.76,972.61,730.81z"/>
</g>
</svg>
