<?xml version="1.0" encoding="utf-8"?>
<!-- Generator: Adobe Illustrator 26.2.1, SVG Export Plug-In . SVG Version: 6.00 Build 0)  -->
<svg version="1.1" id="Layer_1" xmlns="http://www.w3.org/2000/svg" xmlns:xlink="http://www.w3.org/1999/xlink" x="0px" y="0px"
	 viewBox="0 0 1080 1080" style="enable-background:new 0 0 1080 1080;" xml:space="preserve">
<style type="text/css">
	.st0{fill:#9A9999;}
</style>
<path class="st0" d="M559.78,346.4c30.8-40.6,73.62-40.8,73.62-40.8s6.37,38.17-24.23,74.94c-32.67,39.26-69.81,32.84-69.81,32.84
	S532.39,382.5,559.78,346.4z M543.28,440.11c15.85,0,45.26-21.78,83.54-21.78c65.89,0,91.82,46.89,91.82,46.89
	s-50.7,25.92-50.7,88.82c0,70.95,63.16,95.41,63.16,95.41s-44.15,124.27-103.78,124.27c-27.39,0-48.68-18.46-77.54-18.46
	c-29.41,0-58.59,19.15-77.6,19.15c-54.46,0-123.25-117.88-123.25-212.63c0-93.23,58.23-142.13,112.85-142.13
	C497.27,419.64,524.82,440.11,543.28,440.11L543.28,440.11z"/>
</svg>
