<?xml version="1.0" encoding="utf-8"?>
<!-- Generator: Adobe Illustrator 26.2.1, SVG Export Plug-In . SVG Version: 6.00 Build 0)  -->
<svg version="1.1" id="Layer_1" xmlns="http://www.w3.org/2000/svg" xmlns:xlink="http://www.w3.org/1999/xlink" x="0px" y="0px"
	 viewBox="0 0 1080 1080" style="enable-background:new 0 0 1080 1080;" xml:space="preserve">
<style type="text/css">
	.st0{fill:#999999;}
</style>
<g>
	<path class="st0" d="M347.41,471.85c-11.16-7.91-24.65-12.09-38.15-12.56c-9.3-0.47-18.61,0.93-27.91,3.26
		c-17.21,4.65-33.49,12.56-48.38,22.33c-8.84,5.12-17.21,11.16-23.26,19.54c-3.26,4.19-5.58,9.77-6.05,15.35
		c-0.47,3.72,0.47,6.98,2.79,9.77c2.79,3.72,7.44,5.58,12.09,5.58c7.44,0,14.42-3.26,20.93-6.51c10.7-5.58,20-13.03,30.7-18.61
		c3.72-1.86,7.44-3.72,11.16-4.65c2.79-0.47,6.05,0,8.37,1.4c2.33,0.93,4.19,3.72,4.19,6.51c0,3.72-1.86,6.98-4.19,9.77
		c-6.05,6.51-13.49,11.16-20.93,15.82c-12.56,7.44-25.59,14.42-40.01,18.14c-6.98,1.86-14.89,2.79-22.33,1.4
		c-6.51-0.93-13.03-4.65-17.21-9.77c-4.65-6.05-6.05-13.96-5.58-21.4c1.4-12.56,7.91-23.72,15.82-33.03
		c10.23-11.63,22.33-20.93,35.35-28.84c4.65-3.26,9.77-5.58,14.89-8.37c-0.93-2.33-2.33-4.65-3.26-6.98
		c-2.33,0.93-4.65,2.33-6.98,3.72l0.47-0.47c-13.03,6.98-25.12,15.35-36.28,25.12c-11.63,9.77-21.4,21.86-27.91,35.35
		c-3.72,7.91-5.58,16.75-6.05,25.59c0,7.44,1.86,15.35,6.05,21.86c4.65,7.91,13.03,13.49,23.26,15.82s20.93,1.86,31.17-0.93
		c8.84-2.33,18.14-5.58,26.52-9.3c9.77-4.19,18.61-10.23,27.91-15.35c6.51-4.19,13.03-8.84,18.61-14.42
		c4.65-4.65,8.37-9.77,10.7-15.82c1.4-3.72,1.4-7.91,0.93-12.09c-1.4-6.98-6.51-13.03-13.03-15.82c-7.91-3.26-17.21-2.79-25.12,0
		c-16.28,5.58-29.31,17.21-44.66,24.65c-3.26,1.4-6.98,2.79-10.23,1.4c-1.86-0.47-3.26-2.79-3.26-4.65c0-2.79,1.4-5.58,3.26-7.91
		c4.19-5.12,9.3-8.84,14.89-12.09c5.58-3.72,11.16-6.98,17.21-10.23c12.56-6.51,26.05-12.09,40.47-13.03
		c9.77-0.93,20,0.93,28.84,5.58c10.7,5.58,18.61,15.35,21.86,26.52c1.4,5.58,1.4,10.7,0.93,16.28
		c-1.86,14.89-10.23,28.84-20.47,39.54c-6.05,6.51-12.56,12.09-19.54,17.68c-7.91,6.05-16.28,12.09-25.12,16.75
		c-7.91,4.19-15.82,7.44-23.72,11.16c1.86,8.37,4.65,16.75,6.51,25.12c2.79-0.93,6.05-2.33,8.84-3.72
		c9.77-4.19,19.54-8.84,28.38-14.42c8.84-5.58,17.68-11.63,25.59-18.61c6.05-5.12,12.09-10.7,17.68-16.75
		c6.98-7.44,13.49-15.82,18.14-25.12c6.05-12.09,10.23-25.59,8.84-39.08C370.21,496.04,360.44,481.15,347.41,471.85z"/>
	<path class="st0" d="M575.82,514.65c-7.44,17.68-15.82,35.82-23.26,53.5c2.79,0,5.58,0,8.37,0c1.86-4.19,3.26-8.84,5.12-13.03
		c8.37,0,16.75,0,25.12,0c1.86,4.19,3.72,8.84,5.58,13.03c2.79,0.47,5.58,0,8.37,0c-7.44-18.14-15.35-35.82-22.79-53.5
		C580.47,514.65,578.15,514.65,575.82,514.65z M568.84,548.61c3.26-7.91,6.51-16.28,10.23-24.19c3.26,7.91,6.51,16.28,9.77,24.19
		C582.33,548.61,575.35,548.61,568.84,548.61z"/>
	<path class="st0" d="M491.16,561.17c-0.47-5.58,0-11.16,0-16.75c8.37,0,16.75,0,25.12,0c0-2.33,0-4.65,0-6.98
		c-8.37,0-16.75,0-25.12,0c0-5.12,0-10.7,0-15.82c9.3,0,18.14,0,27.45,0c0-2.33,0-4.65,0-6.98c-11.63,0-22.79,0-34.42,0h-0.47
		c0,17.68,0,35.82,0,53.5c12.09,0,23.72,0,35.82,0c0-2.33,0-4.65,0-6.98c-7.44,0-14.89,0-22.33,0
		C495.34,561.17,493.02,561.63,491.16,561.17z"/>
	<path class="st0" d="M429.75,538.37c-3.72-1.4-7.44-2.33-9.77-5.12c-2.33-3.26-1.4-8.37,1.86-10.7c5.12-3.26,13.03-2.33,16.75,2.79
		c2.33-1.86,4.19-3.72,6.05-5.58c-2.33-2.33-5.12-4.65-8.37-5.12c-6.05-1.4-12.56-1.4-18.14,1.86l0.47,0.93
		c-3.72,2.33-6.51,6.05-6.98,10.7c0,3.72,0.47,7.91,2.79,10.7c2.79,3.72,6.98,5.58,11.16,6.98c3.72,0.93,7.91,1.86,10.7,4.65
		c2.79,3.26,1.86,8.37-1.4,10.7c-5.58,4.65-14.89,2.79-19.07-3.26c-1.86,1.4-4.19,3.26-6.05,5.12c3.26,4.65,8.84,6.98,14.42,7.44
		c4.65,0.47,9.3-0.47,13.49-2.79c4.19-2.33,6.98-6.51,7.44-11.16c0.47-4.19,0-8.84-3.26-12.09
		C438.59,540.7,433.94,539.3,429.75,538.37z"/>
	<path class="st0" d="M667,545.81c3.72,0,7.91,0,11.63,0c0,5.12,0,9.77,0,14.89c-5.12,2.33-10.7,2.79-16.28,2.33
		c-5.58-0.93-10.23-4.19-13.49-8.84c-5.58-8.37-4.65-21.4,3.26-28.38c7.44-7.44,20.47-6.51,27.91,0.47
		c1.86-1.86,3.26-3.72,5.12-5.58c-3.26-3.72-7.91-5.58-13.03-6.51c-6.51-1.4-13.96-0.93-20,2.33l0.47,0.47
		c-7.91,3.72-13.03,11.16-14.42,19.54c-1.4,7.44,0,15.82,4.65,22.33c4.19,6.51,11.63,10.7,19.54,11.16
		c7.44,0.47,14.89-0.47,21.86-3.72c0.93-0.47,1.86-0.93,1.86-1.86c0-8.37,0-17.21,0-25.59c-6.51,0-12.56,0-19.07,0
		C667,541.16,667,543.49,667,545.81z"/>
	<path class="st0" d="M745.15,514.65c-7.91,17.68-15.82,35.82-23.72,53.5c2.79,0,5.58,0.47,8.37,0c1.86-4.19,3.26-8.84,5.12-13.03
		c8.37,0,16.75,0,25.12,0c1.86,4.19,3.26,8.84,5.58,13.03c2.79,0.47,5.58,0,8.37,0c-7.44-18.14-15.35-35.82-22.79-53.5
		C749.46,514.65,747.31,514.65,745.15,514.65z M737.7,548.61c3.26-7.91,6.51-16.28,10.23-24.19c3.26,7.91,6.51,16.28,9.77,24.19
		C751.19,548.61,744.22,548.61,737.7,548.61z"/>
	<path class="st0" d="M796.32,521.63c5.58,0,11.63,0,17.21,0c0,15.35,0,31.17,0,46.52c2.79,0,5.12,0,7.44,0c0-15.35,0-31.17,0-46.52
		c5.58,0,11.63,0,17.21,0c0-2.33,0-4.65,0-6.98c-13.96,0-27.91,0-41.87,0C796.32,516.97,796.32,519.3,796.32,521.63z"/>
	<path class="st0" d="M881.91,561.17c0-5.58,0-11.16,0-16.75c8.84,0,17.21,0,25.59,0c0-2.33,0-4.65,0-6.98c-8.84,0-17.21,0-25.59,0
		c0-5.12,0-10.7,0-15.82c8.84,0,18.14,0,26.98,0c0-2.33,0-4.65,0-6.98c-11.63,0-22.79,0-34.42,0c0,17.68,0,35.82,0,53.5
		c12.09,0,23.72,0,35.82,0c0-2.33,0-4.65,0-6.98C900.98,561.17,891.21,561.17,881.91,561.17z"/>
</g>
</svg>
