<?xml version="1.0" encoding="utf-8"?>
<!-- Generator: Adobe Illustrator 26.2.1, SVG Export Plug-In . SVG Version: 6.00 Build 0)  -->
<svg version="1.1" id="Layer_1" xmlns="http://www.w3.org/2000/svg" xmlns:xlink="http://www.w3.org/1999/xlink" x="0px" y="0px"
	 viewBox="0 0 1080 1080" style="enable-background:new 0 0 1080 1080;" xml:space="preserve">
<style type="text/css">
	.st0{fill-rule:evenodd;clip-rule:evenodd;fill:#999999;}
</style>
<g>
	<path class="st0" d="M572.82,536.46c0,0-6.6-4.08-10.69-5.66c0,0-12.64-5.86-15.15-8.64c0,0-4.92-4.64-2.04-10.03
		c0,0,1.21-3.53,6.41-3.53c0,0,6.78,0.37,6.78,5.94v7.86h24.29l-0.04-11.57c0,0,1.87-18.95-28.61-19.78c0,0-23.97-1.58-30.84,11.33
		c0,0-2.7,2.88-2.7,12.91v7.25c0,0-0.28,8.36,4,13.75c0,0,2.41,3.53,8.36,7.43c0,0,12.08,6.5,19.32,10.22c0,0,7.32,4.17,6.35,10.82
		c0,0-0.59,6.82-7.66,6.54c0,0-6.46-0.29-6.46-6.98v-7.85h-25.88v11.41c0,0-0.73,21.82,32.53,21.82c0,0,31.77,0.65,33.26-22.39
		v-9.28C584.05,558.01,585.17,543.89,572.82,536.46z"/>
	<polygon class="st0" points="448.48,493.75 440.35,544.71 438.44,544.71 430.67,494.2 390.1,494.2 388.07,586.49 412.09,586.49 
		412.38,516.96 414.27,516.96 427,586.48 452.27,586.48 464.85,516.98 466.52,516.98 467.1,586.49 491.25,586.49 488.65,493.75 	"/>
	<polygon class="st0" points="305.49,494.13 289.51,586.39 315.37,586.39 324.83,514.85 326.96,514.85 336.42,586.39 362.28,586.39 
		346.3,494.13 	"/>
	<path class="st0" d="M848.1,535.19v13.61h6.63v14.61c0,7.14-6.1,7.27-6.1,7.27c-7.42,0-7.14-6.79-7.14-6.79v-50.53
		c0-5.21,6.59-5.48,6.59-5.48c6.32,0,6.37,6.21,6.37,6.21v7.68h24.35c0.79-15-2.19-18.63-2.19-18.63
		c-6.04-13.56-28.89-12.82-28.89-12.82c-35.11,0-31.22,26.94-31.22,26.94v48.86c0.75,25.26,35.35,22.7,35.94,22.67
		c15.39-1.7,20.04-6.59,20.04-6.59c4.28-3.18,5.38-7.57,5.38-7.57c1.22-2.56,1.53-10.73,1.53-10.73v-28.71H848.1z"/>
	<polygon class="st0" points="767.39,550.2 766.33,550.2 741.62,493.77 712.07,493.77 712.07,586.51 736.12,586.51 734.68,530.08 
		735.75,530.08 761.35,586.51 790.02,586.51 790.02,493.76 765.66,493.76 	"/>
	<path class="st0" d="M653.33,563.4c0,0,0.35,7.61-6.7,7.61c0,0-7.43,0.4-7.43-7.42l-0.07-69.76h-26.39v69.21
		c0,0-2.71,26.2,34.26,26.2c0,0,32.13,0.38,32.13-24.99v-70.41h-25.79V563.4z"/>
	<path class="st0" d="M255.18,536.46c0,0-6.59-4.08-10.68-5.66c0,0-12.63-5.85-15.14-8.64c0,0-4.93-4.65-2.04-10.03
		c0,0,1.2-3.53,6.4-3.53c0,0,6.78,0.37,6.78,5.94v7.86h24.3l-0.05-11.58c0,0,1.86-18.95-28.61-19.78c0,0-2.29-0.15-5.66,0.02
		c0,0-18.46,0.99-25.05,11.11c-0.04,0.07-0.09,0.13-0.13,0.2c0,0-2.69,2.87-2.69,12.91v7.25c0,0-0.28,8.36,4,13.75
		c0,0,2.41,3.53,8.36,7.43c0,0,12.07,6.5,19.32,10.22c0,0,7.32,4.18,6.36,10.82c0,0-0.6,6.82-7.66,6.54c0,0-6.46-0.29-6.46-6.98
		v-7.86h-25.89v11.41c0,0-0.72,21.82,32.53,21.82c0,0,31.77,0.65,33.26-22.39v-9.28C266.42,558.01,267.54,543.89,255.18,536.46z"/>
</g>
</svg>
