<?xml version="1.0" encoding="utf-8"?>
<!-- Generator: Adobe Illustrator 26.2.1, SVG Export Plug-In . SVG Version: 6.00 Build 0)  -->
<svg version="1.1" id="Layer_1" xmlns="http://www.w3.org/2000/svg" xmlns:xlink="http://www.w3.org/1999/xlink" x="0px" y="0px"
	 viewBox="0 0 1080 1080" style="enable-background:new 0 0 1080 1080;" xml:space="preserve">
<style type="text/css">
	.st0{fill:#999999;}
</style>
<g>
	<polygon class="st0" points="862.13,576.27 856.85,590.7 851.56,576.27 844.93,576.27 844.93,597.41 849.03,597.41 849.03,580.78 
		849.13,580.78 855.24,597.41 858.44,597.41 864.56,580.78 864.64,580.78 864.64,597.41 868.75,597.41 868.75,576.27 	"/>
	<polygon class="st0" points="823.17,579.85 829.63,579.85 829.63,597.41 833.75,597.41 833.75,579.85 840.21,579.85 840.21,576.27 
		823.17,576.27 	"/>
	<polygon class="st0" points="617.86,481.17 617.86,566.05 435.08,471.03 435.18,598.63 461.31,598.63 461.31,513.47 644.07,608.97 
		643.96,481.17 	"/>
	<path class="st0" d="M415.66,486.63c-1.56-1.58-3.41-2.81-5.51-3.75c-2.1-0.92-4.37-1.39-6.83-1.39H229.46
		c-2.44,0-4.74,0.47-6.9,1.39c-2.16,0.94-4.03,2.17-5.65,3.75c-1.6,1.56-2.9,3.38-3.89,5.5c-0.98,2.09-1.48,4.36-1.48,6.8
		l-0.28,99.76h26.87v-67.08l49.74,25.89h115.46c2.46,0,4.73-0.47,6.83-1.39c2.12-0.94,3.95-2.17,5.51-3.75
		c1.56-1.56,2.81-3.38,3.75-5.48c0.92-2.1,1.39-4.32,1.39-6.66v-41.29c0-2.44-0.47-4.72-1.39-6.82
		C418.47,490.01,417.22,488.19,415.66,486.63z M394.68,531.46H238.14v-23.93h156.54V531.46z"/>
	<polygon class="st0" points="862.11,480.76 817.18,480.76 757.98,523.24 699.39,481.06 654.44,481.06 744.33,546.09 744.33,597.95 
		772.38,597.95 772.24,546.09 	"/>
</g>
</svg>
