<?xml version="1.0" encoding="utf-8"?>
<!-- Generator: Adobe Illustrator 26.2.1, SVG Export Plug-In . SVG Version: 6.00 Build 0)  -->
<svg version="1.1" id="Layer_1" xmlns="http://www.w3.org/2000/svg" xmlns:xlink="http://www.w3.org/1999/xlink" x="0px" y="0px"
	 viewBox="0 0 1080 1080" style="enable-background:new 0 0 1080 1080;" xml:space="preserve">
<style type="text/css">
	.st0{fill:#999999;}
	.st1{fill-rule:evenodd;clip-rule:evenodd;fill:#999999;}
</style>
<rect x="682.47" y="502.5" class="st0" width="42.11" height="118.44"/>
<g>
	<polygon class="st1" points="770.23,728.21 822.07,728.21 822.07,740 786.18,740 786.18,757.64 817.68,757.64 817.68,768.76 
		786.18,768.76 786.18,788.26 822.07,788.26 822.07,800.05 770.23,800.05 770.23,728.21 	"/>
	<polygon class="st1" points="696.04,728.21 757.71,728.21 757.71,740 734.96,740 734.96,799.99 719.07,799.99 719.07,740 
		696.04,740 696.04,728.21 	"/>
	<polygon class="st1" points="619.16,728.21 636.62,728.21 653.64,758.54 669.77,728.21 687.46,728.21 660.34,771.91 660.34,799.99 
		644.27,799.99 644.27,769.61 619.16,728.21 	"/>
	<path class="st1" d="M567.02,789.83h14.93c2.01,0,3.82-0.27,5.39-0.81c1.57-0.56,2.91-1.36,4.04-2.45c2.13-2.09,3.2-4.52,3.2-7.3
		c0-1.8-0.48-3.47-1.44-5.02c-0.94-1.55-2.4-2.86-4.35-3.91c-1.94-1.05-4.22-1.57-6.84-1.57h-14.93V789.83L567.02,789.83z
		 M567.02,757.64h13.36c3.45,0,6.33-1.02,8.65-3.03c2.17-2.07,3.26-4.35,3.26-6.86c0-2.51-1-4.68-2.97-6.52
		c-1.02-0.92-2.26-1.65-3.76-2.15c-1.51-0.52-3.24-0.77-5.23-0.77h-13.3V757.64L567.02,757.64z M551.57,728.21h32.92
		c4.91,0,9.13,0.9,12.63,2.7c3.53,1.78,6.17,4.12,7.96,6.98c1.78,2.88,2.66,5.83,2.66,8.91c0,3.66-1.13,6.98-3.39,9.93
		c-2.26,2.95-5.52,4.95-9.76,5.96c3.18,0.33,6,1.46,8.45,3.35c2.45,1.92,4.35,4.26,5.67,7c1.32,2.76,1.99,5.6,1.99,8.51
		c0,3.3-0.84,6.35-2.55,9.12c-1.71,2.8-4.31,5.04-7.82,6.75c-3.49,1.71-7.86,2.55-13.11,2.55h-35.66V728.21L551.57,728.21z"/>
	<path class="st1" d="M490.84,728.21h18.65l22.6,54.98l7.13,16.79H522.2l-5.44-16.8h-35.62l-6.34,16.8h-17.54l25.33-54.77
		L490.84,728.21L490.84,728.21z M511.52,771.17l-11.44-32.16l-13.21,32.18L511.52,771.17L511.52,771.17z"/>
	<polygon class="st1" points="347.41,728.21 364.26,728.21 364.26,799.99 347.41,799.99 347.41,728.21 	"/>
	<path class="st1" d="M327.51,728.89v12.36h-31.53c-12.26,0-20.7,14.97-21.15,22.36c-0.45,7.39,6.59,23.62,15.42,23.67l20.28,0.13
		V759.5h16.97v38.86l-34.47,1.49c-23.46,1.02-35.12-18.23-35.12-35.31c0-17.08,13.3-35.66,41.24-35.66H327.51L327.51,728.89z"/>
	<path class="st1" d="M448.04,728.89v12.36h-31.53c-12.26,0-20.7,14.97-21.15,22.36c-0.45,7.39,6.59,23.62,15.42,23.67l20.28,0.13
		V759.5h16.97v38.86l-34.47,1.49c-23.46,1.02-35.12-18.23-35.12-35.31c0-17.08,13.3-35.66,41.24-35.66H448.04L448.04,728.89z"/>
	<path class="st1" d="M551.63,561.11c-55.09,0-100.01-44.93-100.01-100.01s44.92-101.76,102.82-101.76h155.89v-79.39H541.56
		c-105.59,0-189.89,84.3-189.89,187.66c0,88.7,63.04,166.4,149.54,184l216.95-216.95H585.79v125.54L551.63,561.11L551.63,561.11z"/>
	<polygon class="st1" points="653.23,503.03 810.42,503.03 653.23,660.22 653.23,503.03 	"/>
</g>
</svg>
