<?xml version="1.0" encoding="utf-8"?>
<!-- Generator: Adobe Illustrator 26.2.1, SVG Export Plug-In . SVG Version: 6.00 Build 0)  -->
<svg version="1.1" id="Layer_1" xmlns="http://www.w3.org/2000/svg" xmlns:xlink="http://www.w3.org/1999/xlink" x="0px" y="0px"
	 viewBox="0 0 1080 1080" style="enable-background:new 0 0 1080 1080;" xml:space="preserve">
<style type="text/css">
	.st0{fill:#999999;}
	.st1{fill-rule:evenodd;clip-rule:evenodd;fill:#999999;}
</style>
<g>
	<path class="st0" d="M372.34,551.8l4.9-17.8h48.3l-10,36.6c-10.7,5.3-19.9,9-27.5,10.9c-7.6,1.9-16.3,2.9-26.1,2.9
		c-12,0-21.3-1.7-27.9-5.2c-6.6-3.5-11.1-8.6-13.3-15.5c-2.3-6.9-2.2-14.7,0.2-23.6c2.6-9.4,7.1-17.5,13.5-24.4
		c6.5-6.9,14.6-12.2,24.3-15.8c7.6-2.8,17.2-4.2,28.8-4.2c11.2,0,19.3,0.9,24.4,2.6s8.9,4.4,11.6,8c2.7,3.6,4.2,8.2,4.5,13.7
		l-31.4,4.6c-0.4-3.2-1.8-5.7-4.3-7.4c-2.5-1.7-6-2.6-10.6-2.6c-6.9,0-12.9,2-18,6c-5.2,4.1-9,10.4-11.4,19.2
		c-2.5,9.3-2.3,15.9,0.8,19.9c3,4,8.2,6,15.6,6c3.5,0,6.9-0.4,10.3-1.3c3.4-0.9,7.5-2.3,12.1-4.4l2.2-8.1h-21V551.8z M424.74,582.8
		l23.5-85.8h52.1c9.6,0,16.8,0.7,21.5,2.1s8.1,4,10.2,7.8c2.1,3.8,2.4,8.4,0.9,13.9c-1.3,4.8-3.6,8.9-6.9,12.3
		c-3.3,3.5-7.4,6.3-12.2,8.4c-3.1,1.4-7,2.5-11.9,3.4c3.4,1.1,5.8,2.1,7.3,3.2c0.9,0.7,2.2,2.2,3.8,4.5c1.6,2.3,2.5,4.1,2.9,5.3
		l8.3,24.9h-35.3l-9.5-26.2c-1.2-3.4-2.5-5.6-3.9-6.6c-1.9-1.3-4.3-2-7.1-2h-2.8l-9.5,34.8H424.74z M470.04,531.8h13.2
		c1.4,0,4.3-0.4,8.6-1.2c2.2-0.4,4.1-1.3,5.8-2.7c1.7-1.4,2.8-3.1,3.3-5c0.8-2.8,0.3-4.9-1.4-6.4c-1.7-1.5-5.3-2.2-11-2.2h-13.7
		L470.04,531.8z M551.24,497.1h83.7l-5,18.3h-52.4l-3.7,13.6h48.6l-4.8,17.5h-48.6l-4.6,16.9h53.9l-5.3,19.4h-85.2L551.24,497.1z
		 M646.84,497.1h83.7l-5,18.3h-52.4l-3.7,13.6h48.6l-4.8,17.5h-48.6l-4.6,16.9h53.9l-5.3,19.4h-85.2L646.84,497.1z M742.74,497.1
		h29.2l25.1,47.5l13-47.5h29.4l-23.5,85.8h-29.4l-25-47.1l-12.9,47.1h-29.4L742.74,497.1z"/>
	<path class="st1" d="M260.64,495.6c4.1,4,8.4,8.1,11.7,13c1.1,1.7,2.1,3.4,2.8,5.4c0.4,1,0.7,2.1,0.8,3.3c0.5,4.1-1.1,7.1-2.9,9.2
		c-2.5,3-6.2,4.8-11.1,5.3c0,0.8,0,1.6,0,2.4c16.1,0,29.8-2.5,42.7-5.8c2.3,4.5,4.4,9.6,4.4,16.4c0,2.2-0.2,4.3-0.6,6.2
		c-1.5,7.5-5,13.1-9.4,17.8c-2.2,2.3-4.7,4.4-7.3,6.2c-2.7,1.9-5.6,3.5-8.8,4.8c-6.4,2.8-13.8,4.5-22.7,4.5c-4.4,0-8.5-0.5-12.2-1.4
		c-3.7-0.8-7.1-1.9-10.3-3.3c-6.2-2.8-11.7-6.6-15.9-11.2c-2.1-2.3-4-5-5.6-7.9c-1.6-3-2.8-6.3-3.5-10.1c-0.3-1.9-0.6-4.1-0.5-6.3
		c0.1-2.2,0.3-4.2,0.7-6c0.8-3.7,2.2-6.9,3.7-9.9l0,0c13,3.2,26.7,5.7,42.5,5.9c0-0.7,0-1.5,0-2.3c-5.1-0.4-8.9-2.4-11.5-5.4
		c-1.9-2.2-3.5-5.1-2.9-9.3c0.2-1.2,0.5-2.2,0.9-3.2c1.5-3.9,4-7,6.6-10c1.9-2.2,4-4.2,6.1-6.3
		C259.14,497,259.94,496.2,260.64,495.6z M217.54,532.7c-1.3,3.2-2.3,6.8-2.6,11c2,0.5,3.9,0.9,5.9,1.3c0.3-4.7,1.4-8.7,3-12
		c0-0.1,0.1-0.2,0.1-0.3c-1.9-0.4-3.9-0.9-5.8-1.3C217.94,531.7,217.74,532.3,217.54,532.7z M303.34,531.9c-0.1-0.2-0.1-0.3-0.3-0.3
		c-2,0.5-4.1,0.9-6.1,1.4c1.6,3.6,2.8,7.6,3,12.6c2.2-0.4,4.3-0.9,6.4-1.4C306.14,539.5,304.94,535.4,303.34,531.9z M223.64,545.6
		c2.6,0.5,5.2,1,7.9,1.3c0.4-4.7,1.5-8.7,3.1-12.2c-2.7-0.4-5.2-0.9-7.8-1.4C225.04,536.7,223.94,540.7,223.64,545.6z M286.54,535
		c1.5,3.6,2.7,7.7,3,12.5c2.6-0.4,5.1-0.8,7.6-1.2c-0.1-4.4-1-8.1-2.4-11.3c-0.2-0.5-0.4-0.9-0.7-1.3
		C291.64,534.1,289.14,534.5,286.54,535z M234.24,547.3c3.2,0.4,6.4,0.8,9.7,1.1c0.5-4.6,1.6-8.6,3.2-12.2c-3.3-0.3-6.5-0.7-9.7-1.2
		C235.74,538.5,234.64,542.6,234.24,547.3z M274.24,536.4c0.3,0.9,0.7,1.8,1.1,2.8c1,2.9,1.8,6,2.1,9.6c3.2-0.2,6.4-0.6,9.5-0.9
		c-0.3-4.8-1.4-8.9-3.1-12.4C280.64,535.8,277.44,536.2,274.24,536.4z M246.64,548.7c4.1,0.3,8.2,0.5,12.6,0.6c0-4.1,0-8.3,0-12.4
		c-3.1-0.1-6.2-0.2-9.1-0.4C248.34,540,247.24,544,246.64,548.7z M271.54,537.3c-0.1-0.2-0.3-0.6-0.3-0.6c-0.1,0-0.2,0-0.2,0
		c-2.9,0.1-5.9,0.3-9,0.3c0,4.1,0,8.3,0,12.4c4.3,0,8.6-0.1,12.6-0.4C274.14,544.6,273.04,540.6,271.54,537.3z M215.04,546.6
		c0.3,4.4,1.4,7.9,2.8,11c1.4,0.3,2.9,0.7,4.3,1c-0.8-3.3-1.3-6.8-1.4-10.8C218.84,547.4,216.94,547,215.04,546.6L215.04,546.6z
		 M299.94,548.5c-0.1,4-0.7,7.5-1.5,10.8c1.6-0.3,3.1-0.7,4.7-1.1c1.4-2.7,2.4-5.9,2.9-9.5c0.1-0.5,0.2-1,0.1-1.6
		C304.14,547.6,302.04,548,299.94,548.5z M223.64,548.4c0.1,4,0.7,7.6,1.6,10.9c2.3,0.5,4.7,0.9,7,1.3c-0.6-3.4-0.9-7-0.8-10.9
		C228.74,549.3,226.14,548.8,223.64,548.4L223.64,548.4z M289.64,550.2c0.1,3.9-0.3,7.5-0.9,10.9c2.3-0.3,4.5-0.8,6.7-1.2
		c0.8-3.2,1.5-6.7,1.7-10.6c0-0.1,0.1-0.3,0-0.3C294.64,549.4,292.14,549.8,289.64,550.2z M234.14,550.1c-0.1,4,0.4,7.6,0.9,10.9
		c3,0.4,6.1,0.9,9.2,1.2c-0.5-3.4-0.7-7.2-0.6-11C240.44,550.9,237.24,550.5,234.14,550.1L234.14,550.1z M286.94,550.8
		c0-0.2,0-0.3-0.1-0.3c0,0,0,0-0.1,0c-2.9,0.4-6.1,0.6-9.2,0.9c0.2,3.9-0.1,7.6-0.6,11c3.1-0.3,6-0.6,9-1
		C286.44,558.3,287.04,554.7,286.94,550.8z M247.14,562.5c3.9,0.4,8,0.6,12.1,0.6c0-3.7,0-7.4,0-11.1c-4.4-0.1-8.6-0.3-12.7-0.6
		C246.24,555.3,246.64,559.1,247.14,562.5z M261.94,552.1c0,3.7,0,7.4,0,11.1c4.2,0,8.2-0.1,12.1-0.4c0.5-3.2,0.8-7,0.7-10.8
		c0-0.1,0.1-0.3-0.1-0.3C270.64,551.9,266.34,552.1,261.94,552.1z M224.74,567.4c-0.7-1.9-1.2-3.8-1.8-5.8c-1.1-0.2-2.3-0.5-3.3-0.7
		C221.04,563.3,222.84,565.5,224.74,567.4z M297.74,562.2c-0.6,2-1.2,4-1.8,5.8c0.1,0,0.1-0.1,0.2-0.1c2-2,3.8-4.1,5.3-6.5l0,0
		C300.14,561.7,298.94,562,297.74,562.2z M225.94,562.3c0.7,2.5,1.5,4.8,2.4,7.2c2,0.6,4.2,1.1,6.3,1.7c-0.7-2.5-1.4-5-1.9-7.6
		C230.44,563.1,228.24,562.7,225.94,562.3z M294.14,564.5c0.1-0.4,0.4-1,0.5-1.5c0-0.2,0-0.2-0.1-0.1c-2,0.4-4.2,0.7-6.3,1.1
		c-0.5,2.5-1.2,4.9-1.8,7.3c2.1-0.5,4.1-1,6.1-1.7C293.04,568,293.64,566.2,294.14,564.5z M235.64,564c0.6,2.7,1.3,5.3,2.1,7.8
		c2.9,0.6,5.8,1.1,8.8,1.5c-0.7-2.7-1.3-5.4-1.8-8.2C241.64,564.7,238.64,564.3,235.64,564C235.64,563.9,235.64,563.9,235.64,564z
		 M276.44,565.3c-0.5,2.8-1.1,5.4-1.8,8.1c3-0.4,5.8-0.9,8.6-1.4c0.7-2.4,1.4-4.9,2-7.5l0,0C282.44,564.8,279.44,565.1,276.44,565.3
		z M247.54,565.4c0.5,2.9,1.2,5.6,1.9,8.2c3.1,0.3,6.4,0.5,9.7,0.6c0-2.8,0-5.5,0-8.3C255.24,565.8,251.34,565.6,247.54,565.4
		C247.54,565.3,247.54,565.3,247.54,565.4z M261.94,565.9c0,2.8,0,5.5,0,8.3c3.4,0,6.6-0.2,9.8-0.5c0.7-2.6,1.4-5.4,1.9-8.2
		C269.84,565.8,266.04,565.9,261.94,565.9z M236.04,575.8c-0.2-0.6-0.4-1.1-0.5-1.7c-1.3-0.3-2.6-0.6-3.9-0.9
		C233.14,574.1,234.54,575,236.04,575.8z M289.44,573.3c-1.3,0.3-2.6,0.7-4,1c-0.2,0.5-0.4,1.1-0.5,1.6
		C286.54,575.1,287.94,574.2,289.44,573.3z M239.54,577.4c2.8,1.2,5.8,2.2,9.1,2.9c-0.4-1.4-0.9-2.8-1.3-4.1c-3-0.4-5.9-0.8-8.7-1.4
		C238.94,575.6,239.24,576.5,239.54,577.4z M282.24,575.2c0.1-0.2,0.2-0.3-0.1-0.3c-1.2,0.3-2.7,0.5-4.1,0.7
		c-1.4,0.2-2.9,0.4-4.2,0.6c-0.4,1.4-0.8,2.7-1.2,4c3.2-0.7,6.1-1.6,8.8-2.8C281.74,576.8,282.04,575.9,282.24,575.2z M250.34,576.4
		c0.4,1.5,0.9,3,1.4,4.4c2.4,0.4,4.9,0.6,7.6,0.7c0-1.5,0-3.1,0-4.6C256.14,576.9,253.14,576.7,250.34,576.4z M270.84,576.8
		c0.1-0.2,0.1-0.2-0.1-0.2c-2.7,0.3-5.7,0.4-8.8,0.4c0,1.5,0,3.1,0,4.6c2.7,0,5.2-0.3,7.6-0.7
		C269.94,579.6,270.44,578.1,270.84,576.8z"/>
	<g>
		<path class="st1" d="M854.74,497.1c1,0,2,0.1,2.9,0.3c1.7,0.4,3.2,1,4.5,1.9c1.9,1.2,3.4,3,4.4,5.1c0.8,1.8,1.4,4,1.2,6.6
			c-0.2,2.4-1,4.2-2.1,5.8c-1.3,1.9-2.9,3.4-5.1,4.4c-1.5,0.7-3.1,1.1-5.1,1.2c-1,0-2-0.1-2.9-0.3c-2.6-0.6-4.6-1.7-6.2-3.3
			c-0.5-0.5-1-1.1-1.5-1.7c-0.4-0.6-0.8-1.3-1.2-2c-0.7-1.5-1.1-3.1-1.2-5.1c0-1,0.1-2,0.3-2.9c0.6-2.6,1.8-4.6,3.3-6.2
			c0.5-0.5,1.1-1,1.7-1.4c1.5-1.1,3.4-1.9,5.7-2.3C853.74,497.1,854.24,497.1,854.74,497.1z M850.64,500.7c-2.3,1.1-3.9,2.8-4.9,5.2
			c-0.5,1.1-0.9,2.6-0.8,4.2c0.1,1.6,0.4,2.9,1,4c1.1,2.3,2.8,3.9,5.1,4.9c1.2,0.5,2.6,0.9,4.2,0.8c2.3-0.1,4.2-0.9,5.6-1.9
			c1.5-1,2.6-2.5,3.3-4.2c0.2-0.6,0.5-1.2,0.6-1.9c0.1-0.7,0.2-1.5,0.2-2.3c-0.1-1.5-0.4-2.9-1-4c-0.6-1.2-1.2-2.1-2.1-2.9
			c-0.9-0.8-1.9-1.5-3.1-2c-1.1-0.5-2.6-0.9-4.2-0.8C853.04,499.8,851.84,500.1,850.64,500.7z"/>
		<path class="st1" d="M857.54,510c0.4,0.4,0.7,0.7,1,1.2c0.5,1,0.7,2.3,1,3.5c0.1,0.4,0.2,0.9,0.4,1.3c0.1,0.1,0.1,0.3,0.1,0.4
			c0,0.2-0.2,0.4-0.4,0.4c-0.3,0.1-0.7,0-1,0c-0.2,0-0.4,0-0.5,0c-0.2,0-0.4,0-0.6-0.1c-0.1,0-0.1-0.1-0.1-0.2
			c-0.1-0.3-0.2-0.6-0.3-0.9c-0.1-0.3-0.2-0.7-0.2-1c-0.3-1.3-0.4-2.9-1.5-3.4c-0.5-0.3-1.4-0.2-2.2-0.2c0,1.6,0,3.2,0,4.9
			c0,0.4,0,0.8-0.3,0.9c-0.2,0.1-0.6,0-0.9,0c-0.4,0-0.7,0-1,0s-0.4-0.2-0.5-0.5c0-0.3,0-0.6,0-0.9c0-3.9,0-7.9,0-11.8
			c0-0.5,0-0.8,0.2-1c0.2-0.1,0.5-0.1,0.7-0.1c0.7-0.1,1.5-0.2,2.2-0.2c1.3-0.1,2.6,0.1,3.5,0.4c1.4,0.5,2.4,1.6,2.5,3.3
			c0.1,0.6,0,1.2-0.2,1.7C858.94,508.8,858.34,509.5,857.54,510z M854.74,508.8c0.8-0.1,1.5-0.4,1.8-0.9c0.1-0.2,0.2-0.4,0.3-0.6
			c0.1-0.3,0.1-0.7,0-1.1c0-0.2-0.2-0.4-0.3-0.6c-0.2-0.3-0.6-0.5-1-0.7c-0.7-0.3-1.8-0.2-2.6-0.1c0,1.4,0,2.7,0,4.1
			C853.64,508.8,854.24,508.8,854.74,508.8z"/>
	</g>
</g>
</svg>
